<svg><path d="M56.087 13.18h4.238c2.422 0 4.065.527 5.362 1.668 1.557 1.493 2.422 3.6 2.335 5.795a7.95 7.95 0 0 1-2.422 6.058c-1.47 1.229-3.286 1.844-5.189 1.756H56V13.18h.087zm3.027 12.644h.605c1.297.088 2.508-.263 3.546-1.054 1.124-1.054 1.73-2.546 1.643-4.039 0-2.985-1.816-5.005-4.67-5.005h-1.124v10.097zm21.881-2.634c0 3.073-2.508 5.532-5.535 5.532h-.087c-2.94.176-5.449-2.195-5.622-5.18v-.439c-.087-2.985 2.162-5.532 5.103-5.62h.519c3.027-.088 5.535 2.283 5.622 5.356v.351zm-8.476-.088c-.087 1.581 1.038 2.898 2.595 2.985a2.75 2.75 0 0 0 2.941-2.634v-.351c0-1.932-1.038-3.073-2.767-3.073-1.557 0-2.768 1.141-2.854 2.722a.67.67 0 0 1 .087.351zm18.768-5.268h2.768v9.746c0 2.195-.432 3.424-1.384 4.39-1.211 1.054-2.768 1.668-4.324 1.58-1.903.088-3.719-.703-5.103-2.107l1.73-1.844c.778.966 1.989 1.493 3.2 1.493 1.557.176 2.854-.966 3.027-2.546v-1.668c-.865 1.141-2.249 1.756-3.632 1.756-2.854 0-4.93-2.371-4.93-5.532 0-3.424 2.076-5.707 5.189-5.707 1.297-.088 2.595.527 3.373 1.668l.087-1.229zm-5.535 5.18a2.79 2.79 0 0 0 2.595 3.073c.865.088 1.73-.263 2.335-.966.432-.527.605-1.229.519-1.932.087-.878-.173-1.756-.778-2.459-.519-.527-1.211-.79-1.903-.79-1.557 0-2.767 1.229-2.767 2.722v.351zm13.405.79c.26 1.493 1.643 2.546 3.2 2.371.778-.088 1.556-.615 1.989-1.317l2.595.702c-.952 2.019-2.855 3.249-5.017 3.249-2.94.176-5.535-2.195-5.621-5.268v-.439c-.173-2.985 2.076-5.444 5.016-5.62h.432c2.941-.088 5.535 2.195 5.622 5.268v1.054h-8.216zm5.189-1.668c-.173-1.317-1.297-2.283-2.681-2.283-1.297-.088-2.422.878-2.595 2.283h5.276zm8.216 6.234h-3.113V13.18h3.113v6.41h5.708v-6.41h3.114v15.19h-3.114v-6.234h-5.708v6.234zm21.881-5.18c0 3.073-2.508 5.532-5.535 5.532h-.086c-2.941.176-5.535-2.195-5.622-5.18v-.439c-.086-2.985 2.162-5.532 5.103-5.62h.519c3.027-.088 5.535 2.283 5.621 5.356v.351zm-8.389-.088c-.086 1.581 1.038 2.898 2.595 2.985a2.75 2.75 0 0 0 2.94-2.634v-.351c0-1.932-1.038-3.073-2.767-3.073-1.557 0-2.768 1.141-2.854 2.722.086.176.086.263.086.351zm19.46-5.268v6.673c0 1.581-.346 2.459-1.211 3.161-.952.79-2.162 1.142-3.373 1.054-1.298.088-2.508-.351-3.46-1.142-.778-.79-1.21-1.932-1.124-3.073v-6.673h2.854v6.497c-.086.966.519 1.844 1.47 1.932h.26a1.51 1.51 0 0 0 1.643-1.493v-6.936h2.941zm7.091 3.073v-.176c0-.615-.518-1.054-1.297-1.054s-1.124.351-1.124.966c0 .264.086.527.259.703.346.263.346.263 1.816.702 2.336.702 3.287 1.668 3.287 3.337 0 2.019-1.643 3.424-4.065 3.424s-3.978-1.317-4.065-3.424h2.768c.173.878.519 1.317 1.384 1.317.605.088 1.037-.351 1.124-.966v-.088c0-.615-.433-.966-1.903-1.405-2.248-.702-3.286-1.668-3.286-3.337 0-2.02 1.557-3.337 3.978-3.337s3.806 1.229 3.892 3.424l-2.768-.088zm7.179 2.897c.259 1.493 1.643 2.546 3.2 2.371.778-.088 1.556-.615 1.989-1.317l2.594.702c-.951 2.019-2.854 3.249-5.016 3.249-2.94.088-5.535-2.283-5.621-5.268v-.351c-.173-2.985 2.075-5.444 5.016-5.619h.432c3.027-.088 5.535 2.195 5.622 5.268v1.054h-8.216v-.088zm5.189-1.668c-.173-1.317-1.297-2.283-2.681-2.283-1.297-.088-2.422.878-2.595 2.283h5.276z" fill="#fd4d4d"/><path d="M10.001 0h19.399C34.942 0 39.4 4.526 39.4 10.153v19.694C39.4 35.474 34.942 40 29.399 40H10.001C4.458 40 0 35.474 0 29.847V10.153C0 4.526 4.458 0 10.001 0z" fill="#efe7dc"/><path d="M5.302 22.141c-.12-.856.361-1.713 1.084-2.079a5.56 5.56 0 0 1 5.181-.367c.602.367 1.205.612 1.807 1.101.602.367.843 1.223.482 1.957-.482.856-.964 1.59-1.687 2.324-1.325 1.713-3.735 1.957-5.542.612-.12-.122-.361-.245-.482-.489-.602-.856-.964-1.957-.843-3.058zm20.362-4.526c-.723-.122-1.325-.122-1.928-.367s-.843-.856-.723-1.59c.361-1.713 1.807-2.936 3.494-3.303 1.807-.367 3.615.612 4.458 2.324.12.245-.12.734-.12 1.101h-.241v-.979l-1.205 1.468c-.723.734-1.687 1.101-2.771.979-.482 0-.602-.367-.602-.856 0-.612 0-1.101.12-1.713a8.58 8.58 0 0 1 .602-1.59c-.723-.367-1.687.245-2.41 1.468-.482.979-.12 1.835 1.325 3.058zm-3.012 13.7c-2.048.612-4.097 1.713-6.386 1.223l-1.084-.367c-1.687-.734-3.494-1.223-5.302-1.345a11.14 11.14 0 0 1-3.976-1.468c.241-.122.482-.122.723-.122 1.205-.245 2.53 0 3.735.489 1.446.734 2.892 1.101 4.338 1.957.964.367 2.048.489 3.012.122l3.133-.734h1.807v.245zm-9.398-20.428c-.361-1.101-1.687-1.712-2.771-1.223-.12 0-.12 0-.241.122-.964.367-1.446 1.223-1.566 2.202 0 .122 0 .367-.12.489-.241 1.101.12 1.468 1.205 1.59h1.084c1.084 0 2.048-.734 2.41-1.835.12-.367.12-.856 0-1.346zm-2.892 2.936c-.723-.122-1.205-.734-1.205-1.345.12-1.223.964-2.202 2.169-2.324-1.928.856-1.687 2.202-.964 3.67z" fill="#000"/><defs/></svg>